<?xml version="1.0" encoding="utf-8"?>
<!-- Generator: Adobe Illustrator 26.1.0, SVG Export Plug-In . SVG Version: 6.00 Build 0)  -->
<svg version="1.1" id="Layer_1" xmlns="http://www.w3.org/2000/svg" xmlns:xlink="http://www.w3.org/1999/xlink" x="0px" y="0px"
	 viewBox="0 0 1080 1080" style="enable-background:new 0 0 1080 1080;" xml:space="preserve">
<style type="text/css">
	.st0{fill:#1E1E20;}
</style>
<g>
	<g>
		<path class="st0" d="M539.56,16c0.9,0,1.74,0.51,2.3,1.38l466.12,724.33c0.72,1.1,0.86,2.63,0.36,3.9
			c-0.5,1.28-1.53,2.09-2.66,2.09H73.44c-1.14,0-2.18-0.81-2.66-2.09c-0.48-1.26-0.35-2.8,0.38-3.9L537.26,17.4
			C537.83,16.53,538.67,16,539.56,16z M964.19,720.24L539.56,60.39L114.95,720.24H964.19z"/>
	</g>
	<g>
		<path class="st0" d="M539.56,1069c-0.9,0-1.75-0.51-2.32-1.38L71.14,343.28c-0.72-1.11-0.86-2.62-0.36-3.9
			c0.48-1.26,1.52-2.09,2.66-2.09h932.25c1.14,0,2.18,0.83,2.66,2.09c0.48,1.28,0.35,2.8-0.38,3.9l-466.1,724.32
			C541.3,1068.49,540.46,1069,539.56,1069z M79.6,344.65l459.96,714.77l459.98-714.77H79.6z"/>
	</g>
	<g>
		<path class="st0" d="M56.13,189.49c0.62,0,1.23,0.51,1.43,1.22l6.09,9.49c0.47,0.72,0.36,1.78-0.21,2.35
			c-0.59,0.56-1.41,0.45-1.88-0.27l-6.5-10.08c-0.3-0.5-0.38-1.19-0.15-1.76C55.15,189.86,55.62,189.49,56.13,189.49z M77.79,189.49
			h10.68c0.72,0,1.34,0.74,1.34,1.67c0,0.9-0.6,1.65-1.34,1.65H77.79c-0.74,0-1.34-0.74-1.34-1.65
			C76.45,190.25,77.05,189.49,77.79,189.49z M109.83,189.49h10.68c0.72,0,1.34,0.74,1.34,1.67c0,0.9-0.6,1.65-1.34,1.65h-10.68
			c-0.74,0-1.32-0.74-1.32-1.65C108.49,190.25,109.08,189.49,109.83,189.49z M141.86,189.49h10.68c0.74,0,1.34,0.74,1.34,1.67
			c0,0.9-0.6,1.65-1.34,1.65h-10.68c-0.74,0-1.34-0.74-1.34-1.65C140.54,190.25,141.12,189.49,141.86,189.49z M173.9,189.49h10.68
			c0.74,0,1.34,0.74,1.34,1.67c0,0.9-0.6,1.65-1.34,1.65H173.9c-0.74,0-1.34-0.74-1.34-1.65
			C172.56,190.25,173.17,189.49,173.9,189.49z M205.94,189.49h10.68c0.74,0,1.34,0.74,1.34,1.67c0,0.9-0.6,1.65-1.34,1.65h-10.68
			c-0.74,0-1.34-0.74-1.34-1.65C204.61,190.25,205.19,189.49,205.94,189.49z M237.97,189.49h10.68c0.72,0,1.34,0.74,1.34,1.67
			c0,0.9-0.62,1.65-1.34,1.65h-10.68c-0.74,0-1.34-0.74-1.34-1.65C236.65,190.25,237.23,189.49,237.97,189.49z M270.01,189.49h10.68
			c0.72,0,1.32,0.74,1.32,1.67c0,0.9-0.6,1.65-1.32,1.65h-10.68c-0.74,0-1.34-0.74-1.34-1.65
			C268.69,190.25,269.28,189.49,270.01,189.49z M302.06,189.49h10.67c0.74,0,1.34,0.74,1.34,1.67c0,0.9-0.6,1.65-1.34,1.65h-10.67
			c-0.74,0-1.34-0.74-1.34-1.65C300.72,190.25,301.32,189.49,302.06,189.49z M334.1,189.49h10.68c0.72,0,1.34,0.74,1.34,1.67
			c0,0.9-0.6,1.65-1.34,1.65H334.1c-0.74,0-1.34-0.74-1.34-1.65C332.76,190.25,333.35,189.49,334.1,189.49z M366.13,189.49h10.68
			c0.74,0,1.34,0.74,1.34,1.67c0,0.9-0.6,1.65-1.34,1.65h-10.68c-0.74,0-1.34-0.74-1.34-1.65
			C364.8,190.25,365.39,189.49,366.13,189.49z M398.17,189.49h10.68c0.74,0,1.34,0.74,1.34,1.67c0,0.9-0.6,1.65-1.34,1.65h-10.68
			c-0.74,0-1.34-0.74-1.34-1.65C396.83,190.25,397.43,189.49,398.17,189.49z M430.21,189.49h10.68c0.74,0,1.34,0.74,1.34,1.67
			c0,0.9-0.6,1.65-1.34,1.65h-10.68c-0.74,0-1.34-0.74-1.34-1.65C428.87,190.25,429.46,189.49,430.21,189.49z M462.24,189.49h10.68
			c0.72,0,1.34,0.74,1.34,1.67c0,0.9-0.6,1.65-1.34,1.65h-10.68c-0.74,0-1.34-0.74-1.34-1.65
			C460.91,190.25,461.5,189.49,462.24,189.49z M494.28,189.49h10.68c0.72,0,1.34,0.74,1.34,1.67c0,0.9-0.6,1.65-1.34,1.65h-10.68
			c-0.74,0-1.34-0.74-1.34-1.65C492.94,190.25,493.54,189.49,494.28,189.49z M526.32,189.49H537c0.6,0,1.13,0.5,1.28,1.2
			c0.15-0.71,0.68-1.2,1.28-1.2h10.68c0.74,0,1.34,0.74,1.34,1.67c0,0.9-0.6,1.65-1.34,1.65h-10.68c-0.6,0-1.13-0.5-1.28-1.2
			c-0.17,0.71-0.68,1.2-1.28,1.2h-10.68c-0.74,0-1.32-0.74-1.32-1.65C525,190.25,525.58,189.49,526.32,189.49z M571.6,189.49h10.68
			c0.74,0,1.34,0.74,1.34,1.67c0,0.9-0.6,1.65-1.34,1.65H571.6c-0.72,0-1.34-0.74-1.34-1.65
			C570.26,190.25,570.88,189.49,571.6,189.49z M603.64,189.49h10.68c0.74,0,1.34,0.74,1.34,1.67c0,0.9-0.6,1.65-1.34,1.65h-10.68
			c-0.72,0-1.34-0.74-1.34-1.65C602.31,190.25,602.91,189.49,603.64,189.49z M635.67,189.49h10.68c0.74,0,1.34,0.74,1.34,1.67
			c0,0.9-0.6,1.65-1.34,1.65h-10.68c-0.72,0-1.34-0.74-1.34-1.65C634.35,190.25,634.95,189.49,635.67,189.49z M667.73,189.49h10.67
			c0.74,0,1.34,0.74,1.34,1.67c0,0.9-0.6,1.65-1.34,1.65h-10.67c-0.74,0-1.34-0.74-1.34-1.65
			C666.37,190.25,666.99,189.49,667.73,189.49z M699.76,189.49h10.68c0.72,0,1.34,0.74,1.34,1.67c0,0.9-0.6,1.65-1.34,1.65h-10.68
			c-0.72,0-1.34-0.74-1.34-1.65C698.42,190.25,699.03,189.49,699.76,189.49z M731.8,189.49h10.68c0.72,0,1.34,0.74,1.34,1.67
			c0,0.9-0.6,1.65-1.34,1.65H731.8c-0.74,0-1.34-0.74-1.34-1.65C730.46,190.25,731.06,189.49,731.8,189.49z M763.84,189.49h10.68
			c0.74,0,1.32,0.74,1.32,1.67c0,0.9-0.6,1.65-1.32,1.65h-10.68c-0.74,0-1.34-0.74-1.34-1.65
			C762.5,190.25,763.1,189.49,763.84,189.49z M795.87,189.49h10.68c0.74,0,1.34,0.74,1.34,1.67c0,0.9-0.6,1.65-1.34,1.65h-10.68
			c-0.72,0-1.34-0.74-1.34-1.65C794.53,190.25,795.15,189.49,795.87,189.49z M827.91,189.49h10.68c0.72,0,1.34,0.74,1.34,1.67
			c0,0.9-0.6,1.65-1.34,1.65h-10.68c-0.72,0-1.34-0.74-1.34-1.65C826.57,190.25,827.19,189.49,827.91,189.49z M859.95,189.49h10.68
			c0.74,0,1.34,0.74,1.34,1.67c0,0.9-0.6,1.65-1.34,1.65h-10.68c-0.74,0-1.34-0.74-1.34-1.65
			C858.61,190.25,859.21,189.49,859.95,189.49z M891.98,189.49h10.68c0.74,0,1.34,0.74,1.34,1.67c0,0.9-0.6,1.65-1.34,1.65h-10.68
			c-0.74,0-1.34-0.74-1.34-1.65C890.65,190.25,891.26,189.49,891.98,189.49z M924.02,189.49h10.68c0.72,0,1.32,0.74,1.32,1.67
			c0,0.9-0.6,1.65-1.32,1.65h-10.68c-0.72,0-1.34-0.74-1.34-1.65C922.68,190.25,923.3,189.49,924.02,189.49z M956.06,189.49h10.68
			c0.72,0,1.34,0.74,1.34,1.67c0,0.9-0.62,1.65-1.34,1.65h-10.68c-0.74,0-1.34-0.74-1.34-1.65
			C954.72,190.25,955.33,189.49,956.06,189.49z M988.11,189.49h10.68c0.72,0,1.34,0.74,1.34,1.67c0,0.9-0.6,1.65-1.34,1.65h-10.68
			c-0.74,0-1.34-0.74-1.34-1.65C986.77,190.25,987.37,189.49,988.11,189.49z M1020.13,189.49h2.87c0.5,0,0.98,0.36,1.2,0.95
			c0.23,0.57,0.15,1.25-0.15,1.76l-4.89,7.58c-0.47,0.72-1.31,0.83-1.88,0.26c-0.57-0.57-0.66-1.61-0.21-2.33l3.14-4.89h-0.09
			c-0.74,0-1.32-0.74-1.32-1.65C1018.81,190.25,1019.41,189.49,1020.13,189.49z M1004.77,217.85c0.29,0,0.59,0.12,0.83,0.38
			c0.59,0.57,0.68,1.61,0.21,2.33l-6.69,10.38c-0.47,0.72-1.31,0.83-1.88,0.26c-0.57-0.59-0.66-1.62-0.21-2.35l6.68-10.36
			C1003.99,218.06,1004.37,217.85,1004.77,217.85z M75.99,220.36c0.39,0,0.77,0.21,1.04,0.62l6.68,10.38
			c0.47,0.72,0.38,1.78-0.21,2.33c-0.57,0.57-1.41,0.48-1.88-0.26l-6.68-10.38c-0.47-0.71-0.36-1.78,0.21-2.33
			C75.38,220.47,75.68,220.36,75.99,220.36z M984.72,249.01c0.3,0,0.59,0.12,0.83,0.38c0.57,0.56,0.68,1.61,0.21,2.33l-6.68,10.38
			c-0.47,0.71-1.31,0.83-1.88,0.26c-0.57-0.59-0.66-1.62-0.21-2.33l6.69-10.39C983.95,249.2,984.31,249.01,984.72,249.01z
			 M96.02,251.5c0.39,0,0.78,0.21,1.05,0.62l6.68,10.39c0.47,0.72,0.36,1.78-0.21,2.35c-0.59,0.56-1.41,0.45-1.88-0.27l-6.68-10.38
			c-0.47-0.72-0.36-1.78,0.21-2.35C95.44,251.61,95.74,251.5,96.02,251.5z M964.67,280.16c0.29,0,0.59,0.11,0.83,0.36
			c0.57,0.57,0.68,1.61,0.21,2.33l-6.68,10.39c-0.47,0.72-1.31,0.83-1.88,0.26c-0.57-0.57-0.66-1.62-0.2-2.33l6.68-10.39
			C963.9,280.36,964.28,280.16,964.67,280.16z M116.08,282.66c0.39,0,0.78,0.21,1.04,0.62l6.68,10.38c0.47,0.72,0.38,1.78-0.21,2.35
			c-0.57,0.56-1.41,0.47-1.88-0.27l-6.68-10.36c-0.47-0.72-0.36-1.78,0.21-2.35C115.47,282.76,115.78,282.66,116.08,282.66z
			 M944.63,311.3c0.29,0,0.59,0.11,0.83,0.36c0.57,0.57,0.68,1.62,0.21,2.33l-6.68,10.39c-0.47,0.72-1.31,0.83-1.88,0.27
			c-0.57-0.59-0.66-1.62-0.21-2.35l6.68-10.39C943.85,311.51,944.24,311.3,944.63,311.3z M136.11,313.8c0.39,0,0.78,0.21,1.05,0.63
			l6.68,10.38c0.45,0.72,0.36,1.78-0.21,2.35c-0.57,0.56-1.41,0.45-1.88-0.27l-6.66-10.38c-0.47-0.72-0.36-1.78,0.2-2.33
			C135.53,313.9,135.83,313.8,136.11,313.8z M924.58,342.44c0.3,0,0.59,0.12,0.84,0.36c0.56,0.56,0.66,1.62,0.21,2.33l-6.69,10.39
			c-0.47,0.72-1.29,0.83-1.87,0.27c-0.57-0.57-0.68-1.62-0.21-2.35l6.68-10.39C923.81,342.65,924.19,342.44,924.58,342.44z
			 M156.17,344.94c0.39,0,0.77,0.21,1.04,0.63l6.69,10.38c0.47,0.72,0.36,1.78-0.21,2.35c-0.57,0.57-1.41,0.45-1.88-0.26
			l-6.69-10.39c-0.45-0.72-0.36-1.76,0.23-2.33C155.56,345.06,155.87,344.94,156.17,344.94z M904.54,373.59
			c0.3,0,0.59,0.12,0.83,0.36c0.56,0.59,0.66,1.62,0.21,2.33l-6.69,10.41c-0.47,0.72-1.31,0.83-1.88,0.26
			c-0.57-0.57-0.66-1.62-0.21-2.35l6.69-10.39C903.76,373.8,904.15,373.59,904.54,373.59z M176.19,376.09
			c0.39,0,0.78,0.21,1.04,0.63l6.68,10.39c0.47,0.72,0.36,1.78-0.21,2.33c-0.59,0.57-1.41,0.47-1.88-0.26l-6.66-10.39
			c-0.47-0.72-0.38-1.76,0.2-2.33C175.62,376.21,175.9,376.09,176.19,376.09z M884.49,404.73c0.3,0,0.59,0.12,0.84,0.36
			c0.56,0.57,0.66,1.62,0.21,2.35l-6.68,10.38c-0.47,0.72-1.31,0.83-1.88,0.27c-0.57-0.57-0.68-1.62-0.21-2.35l6.69-10.38
			C883.72,404.94,884.1,404.73,884.49,404.73z M196.26,407.25c0.39,0,0.77,0.21,1.02,0.62l6.69,10.39c0.45,0.71,0.36,1.78-0.21,2.33
			c-0.57,0.56-1.41,0.45-1.88-0.26l-6.68-10.39c-0.45-0.72-0.36-1.76,0.21-2.33C195.66,407.35,195.94,407.25,196.26,407.25z
			 M864.45,435.89c0.3,0,0.59,0.12,0.84,0.36c0.57,0.57,0.66,1.62,0.21,2.35l-6.68,10.36c-0.47,0.74-1.31,0.84-1.88,0.27
			s-0.68-1.62-0.21-2.35l6.68-10.36C863.67,436.11,864.06,435.89,864.45,435.89z M216.28,438.4c0.39,0,0.78,0.21,1.05,0.63
			l6.66,10.38c0.47,0.72,0.38,1.78-0.2,2.35s-1.41,0.47-1.88-0.27l-6.68-10.38c-0.47-0.72-0.36-1.78,0.2-2.35
			C215.71,438.51,216.01,438.4,216.28,438.4z M844.41,467.03c0.3,0,0.59,0.12,0.84,0.38c0.56,0.57,0.66,1.62,0.21,2.33l-6.69,10.39
			c-0.47,0.71-1.31,0.83-1.88,0.26c-0.57-0.57-0.68-1.61-0.21-2.33l6.68-10.39C843.63,467.24,844.01,467.03,844.41,467.03z
			 M236.35,469.54c0.39,0,0.78,0.21,1.04,0.63l6.68,10.39c0.45,0.71,0.38,1.76-0.21,2.33c-0.57,0.57-1.4,0.45-1.88-0.26l-6.68-10.39
			c-0.45-0.72-0.36-1.78,0.21-2.35C235.75,469.65,236.03,469.54,236.35,469.54z M824.36,498.18c0.29,0,0.57,0.12,0.84,0.38
			c0.57,0.57,0.66,1.62,0.21,2.33l-6.68,10.38c-0.47,0.72-1.31,0.83-1.88,0.26c-0.57-0.56-0.68-1.61-0.21-2.33l6.68-10.38
			C823.58,498.41,823.97,498.18,824.36,498.18z M256.37,500.68c0.39,0,0.78,0.21,1.04,0.63l6.68,10.38
			c0.47,0.71,0.36,1.76-0.21,2.33c-0.57,0.59-1.43,0.45-1.88-0.26l-6.65-10.38c-0.47-0.72-0.38-1.78,0.2-2.35
			C255.8,500.8,256.08,500.68,256.37,500.68z M804.32,529.34c0.29,0,0.57,0.11,0.83,0.36c0.57,0.57,0.66,1.62,0.21,2.35l-6.68,10.38
			c-0.47,0.72-1.31,0.84-1.88,0.26c-0.57-0.56-0.66-1.61-0.21-2.33l6.68-10.38C803.52,529.55,803.92,529.34,804.32,529.34z
			 M276.42,531.83c0.39,0,0.78,0.23,1.05,0.63l6.68,10.39c0.47,0.71,0.36,1.78-0.2,2.33c-0.59,0.57-1.41,0.47-1.88-0.26l-6.69-10.39
			c-0.45-0.72-0.35-1.78,0.21-2.35C275.84,531.94,276.14,531.83,276.42,531.83z M784.27,560.48c0.29,0,0.59,0.12,0.83,0.36
			c0.57,0.57,0.68,1.62,0.21,2.35l-6.69,10.39c-0.45,0.71-1.29,0.81-1.88,0.26c-0.57-0.57-0.66-1.62-0.21-2.35l6.69-10.38
			C783.49,560.69,783.88,560.48,784.27,560.48z M296.48,562.99c0.39,0,0.77,0.23,1.02,0.63l6.69,10.38
			c0.47,0.72,0.36,1.78-0.21,2.33c-0.59,0.57-1.43,0.47-1.88-0.26l-6.69-10.38c-0.47-0.71-0.38-1.76,0.21-2.33
			C295.87,563.09,296.17,562.99,296.48,562.99z M764.23,591.63c0.3,0,0.59,0.12,0.84,0.36c0.56,0.57,0.66,1.62,0.21,2.35
			l-6.69,10.39c-0.47,0.72-1.31,0.83-1.88,0.26c-0.57-0.57-0.66-1.62-0.21-2.35l6.69-10.38
			C763.45,591.84,763.84,591.63,764.23,591.63z M316.51,594.13c0.39,0,0.77,0.23,1.04,0.63l6.68,10.38c0.48,0.72,0.38,1.78-0.2,2.33
			c-0.59,0.59-1.41,0.47-1.88-0.26l-6.69-10.39c-0.47-0.71-0.36-1.76,0.21-2.33C315.93,594.25,316.23,594.13,316.51,594.13z
			 M744.16,622.77c0.3,0,0.6,0.11,0.83,0.36c0.57,0.57,0.68,1.62,0.21,2.35l-6.68,10.39c-0.47,0.71-1.31,0.83-1.88,0.26
			c-0.57-0.57-0.68-1.62-0.21-2.33l6.68-10.39C743.4,622.98,743.79,622.77,744.16,622.77z M336.57,625.28
			c0.39,0,0.78,0.21,1.04,0.62l6.69,10.39c0.45,0.72,0.36,1.78-0.21,2.33c-0.59,0.56-1.41,0.45-1.88-0.26l-6.68-10.38
			c-0.47-0.72-0.36-1.78,0.21-2.35C335.98,625.39,336.26,625.28,336.57,625.28z M724.13,653.93c0.29,0,0.6,0.11,0.84,0.38
			c0.57,0.56,0.68,1.61,0.21,2.33l-6.68,10.38c-0.47,0.72-1.31,0.83-1.88,0.26c-0.59-0.57-0.68-1.61-0.21-2.33l6.68-10.38
			C723.34,654.15,723.75,653.93,724.13,653.93z M356.62,656.42c0.38,0,0.78,0.21,1.04,0.63l6.68,10.36
			c0.47,0.72,0.38,1.78-0.21,2.35c-0.59,0.56-1.41,0.47-1.88-0.27l-6.68-10.36c-0.47-0.72-0.38-1.78,0.21-2.35
			C356.02,656.54,356.32,656.42,356.62,656.42z M704.09,685.07c0.29,0,0.59,0.12,0.83,0.38c0.57,0.57,0.66,1.62,0.21,2.33
			l-6.69,10.39c-0.47,0.72-1.31,0.83-1.88,0.27c-0.57-0.59-0.68-1.62-0.21-2.35l6.69-10.39
			C703.31,685.29,703.7,685.07,704.09,685.07z M376.66,687.58c0.39,0,0.78,0.21,1.05,0.63l6.68,10.38c0.47,0.72,0.36,1.78-0.21,2.35
			c-0.57,0.56-1.41,0.45-1.87-0.26l-6.68-10.39c-0.47-0.71-0.38-1.78,0.21-2.33C376.07,687.68,376.37,687.58,376.66,687.58z
			 M684.02,716.22c0.3,0,0.59,0.12,0.84,0.36c0.57,0.59,0.66,1.62,0.2,2.33l-6.68,10.39c-0.47,0.72-1.31,0.84-1.88,0.26
			c-0.57-0.56-0.66-1.61-0.21-2.33l6.68-10.39C683.25,716.43,683.64,716.22,684.02,716.22z M396.71,718.72
			c0.39,0,0.77,0.21,1.04,0.63l6.68,10.39c0.45,0.71,0.36,1.78-0.21,2.33c-0.59,0.57-1.41,0.47-1.88-0.26l-6.69-10.39
			c-0.45-0.72-0.36-1.78,0.23-2.33C396.11,718.82,396.41,718.72,396.71,718.72z M663.98,747.37c0.29,0,0.59,0.12,0.83,0.36
			c0.59,0.59,0.66,1.62,0.21,2.35l-6.68,10.36c-0.48,0.72-1.31,0.83-1.88,0.26c-0.59-0.57-0.66-1.61-0.21-2.33l6.68-10.38
			C663.22,747.59,663.61,747.37,663.98,747.37z M416.75,749.89c0.41,0,0.78,0.21,1.05,0.62l6.68,10.38
			c0.45,0.71,0.36,1.78-0.23,2.33c-0.57,0.57-1.41,0.48-1.87-0.26l-6.69-10.38c-0.45-0.72-0.38-1.78,0.21-2.33
			C416.16,749.99,416.46,749.89,416.75,749.89z M643.95,778.51c0.3,0,0.6,0.11,0.84,0.36c0.59,0.57,0.66,1.61,0.21,2.33l-6.68,10.38
			c-0.48,0.71-1.31,0.83-1.88,0.27c-0.59-0.57-0.68-1.62-0.21-2.35l6.68-10.38C643.16,778.72,643.55,778.51,643.95,778.51z
			 M436.8,781.03c0.39,0,0.77,0.21,1.04,0.62l6.68,10.39c0.45,0.72,0.38,1.78-0.21,2.35c-0.56,0.57-1.41,0.45-1.88-0.27l-6.68-10.39
			c-0.47-0.71-0.36-1.78,0.21-2.33C436.2,781.13,436.51,781.03,436.8,781.03z M623.89,809.65c0.3,0,0.59,0.12,0.83,0.38
			c0.57,0.57,0.66,1.61,0.21,2.33l-6.68,10.39c-0.48,0.72-1.31,0.83-1.88,0.26c-0.59-0.57-0.68-1.62-0.21-2.35l6.68-10.38
			C623.13,809.86,623.5,809.65,623.89,809.65z M456.84,812.15c0.39,0,0.78,0.21,1.04,0.62l6.68,10.39c0.45,0.72,0.36,1.78-0.21,2.35
			c-0.59,0.56-1.43,0.47-1.9-0.27l-6.68-10.39c-0.47-0.71-0.36-1.78,0.21-2.33C456.26,812.27,456.55,812.15,456.84,812.15z
			 M603.85,840.81c0.29,0,0.59,0.12,0.83,0.38c0.59,0.57,0.66,1.61,0.21,2.33l-6.68,10.38c-0.47,0.71-1.31,0.83-1.88,0.26
			c-0.57-0.56-0.68-1.62-0.21-2.33l6.68-10.38C603.07,841.02,603.45,840.81,603.85,840.81z M476.89,843.32
			c0.39,0,0.78,0.21,1.04,0.62l6.68,10.38c0.47,0.71,0.38,1.78-0.21,2.35c-0.59,0.57-1.41,0.45-1.88-0.27l-6.68-10.36
			c-0.47-0.72-0.36-1.78,0.21-2.35C476.3,843.43,476.59,843.32,476.89,843.32z M583.8,871.96c0.29,0,0.59,0.11,0.83,0.36
			c0.57,0.57,0.66,1.61,0.21,2.33l-6.68,10.39c-0.47,0.72-1.31,0.84-1.88,0.26c-0.57-0.56-0.68-1.62-0.21-2.33l6.68-10.38
			C583.03,872.17,583.41,871.96,583.8,871.96z M496.93,874.46c0.39,0,0.78,0.21,1.05,0.63l6.68,10.38c0.47,0.72,0.38,1.78-0.21,2.35
			s-1.43,0.47-1.88-0.27l-6.68-10.38c-0.47-0.72-0.38-1.78,0.2-2.33C496.36,874.57,496.66,874.46,496.93,874.46z M563.76,903.1
			c0.3,0,0.59,0.12,0.83,0.36c0.56,0.56,0.66,1.62,0.21,2.33l-6.68,10.38c-0.47,0.74-1.31,0.84-1.88,0.27s-0.66-1.62-0.21-2.35
			l6.69-10.39C562.98,903.31,563.36,903.1,563.76,903.1z M516.99,905.6c0.39,0,0.77,0.21,1.02,0.63l6.68,10.38
			c0.45,0.72,0.36,1.78-0.21,2.35c-0.57,0.56-1.4,0.45-1.88-0.26l-6.69-10.39c-0.45-0.72-0.35-1.78,0.23-2.33
			C516.39,905.71,516.69,905.6,516.99,905.6z M543.71,934.26c0.29,0,0.59,0.12,0.84,0.36c0.57,0.57,0.68,1.62,0.21,2.33l-4.15,6.44
			c-0.51,0.78-1.58,0.78-2.09,0l-2.54-3.94c-0.45-0.72-0.36-1.76,0.21-2.33c0.57-0.59,1.41-0.48,1.88,0.26l1.5,2.33l3.11-4.83
			C542.93,934.47,543.32,934.26,543.71,934.26z"/>
	</g>
	<g>
		<polygon class="st0" points="539.56,743.04 407.15,743.04 473.37,640.18 539.56,537.33 605.77,640.18 671.99,743.04 		"/>
	</g>
	<g>
		<path class="st0" d="M521.96,681.21c0-12.12,7.87-21.95,17.6-21.95c9.73,0,17.6,9.82,17.6,21.95c0,12.14-7.87,21.93-17.6,21.93
			C529.84,703.15,521.96,693.34,521.96,681.21z"/>
	</g>
</g>
</svg>
